<svg xmlns="http://www.w3.org/2000/svg" width="1200" height="630" viewBox="0 0 1200 630">
  <defs>
    <linearGradient id="bg" x1="0" y1="0" x2="1" y2="1"><stop offset="0" stop-color="#09090b"/><stop offset="0.55" stop-color="#111827"/><stop offset="1" stop-color="#312e81"/></linearGradient>
    <linearGradient id="g" x1="0" y1="0" x2="1" y2="1"><stop offset="0" stop-color="#7c5cf6"/><stop offset="1" stop-color="#06b6d4"/></linearGradient>
    <filter id="glow"><feGaussianBlur stdDeviation="18" result="b"/><feMerge><feMergeNode in="b"/><feMergeNode in="SourceGraphic"/></feMerge></filter>
  </defs>
  <rect width="1200" height="630" fill="url(#bg)"/>
  <g opacity="0.16"><path d="M0 90H1200M0 180H1200M0 270H1200M0 360H1200M0 450H1200M0 540H1200M120 0V630M240 0V630M360 0V630M480 0V630M600 0V630M720 0V630M840 0V630M960 0V630M1080 0V630" stroke="#fff" stroke-width="1"/></g>
  <circle cx="895" cy="170" r="120" fill="#7c5cf6" opacity=".18" filter="url(#glow)"/>
  <circle cx="1015" cy="430" r="150" fill="#06b6d4" opacity=".13" filter="url(#glow)"/>
  <rect x="76" y="72" width="1048" height="486" rx="34" fill="rgba(255,255,255,.045)" stroke="rgba(255,255,255,.14)"/>
  <text x="110" y="132" fill="#a0a0ab" font-family="Inter,Arial,sans-serif" font-size="28" font-weight="700" letter-spacing="5">QUTAIFAN FREE SOFTWARE GUIDE</text>
  <text x="110" y="245" fill="#fff" font-family="Inter,Arial,sans-serif" font-size="74" font-weight="900">Best Free Password</text>
  <text x="110" y="326" fill="#fff" font-family="Inter,Arial,sans-serif" font-size="74" font-weight="900">Managers 2026</text>
  <text x="110" y="396" fill="#cbd5e1" font-family="Inter,Arial,sans-serif" font-size="32">Bitwarden · KeePassXC · Proton Pass · Apple · Google</text>
  <g transform="translate(865 220)">
    <rect x="0" y="60" width="160" height="145" rx="28" fill="url(#g)" opacity=".95"/>
    <path d="M45 60V40c0-49 70-49 70 0v20" fill="none" stroke="#fff" stroke-width="18" stroke-linecap="round"/>
    <circle cx="80" cy="130" r="20" fill="#fff"/>
    <rect x="72" y="146" width="16" height="36" rx="8" fill="#fff"/>
  </g>
</svg>